<?xml version="1.0" encoding="UTF-8"?>
<svg id="Layer_1" data-name="Layer 1" xmlns="http://www.w3.org/2000/svg" viewBox="0 0 220.62 223.82">
  <defs>
    <style>
      .cls-1 {
        fill: #fff;
      }
    </style>
  </defs>
  <path class="cls-1" d="m219.84,141.58c-12.36,45.08-52.2,78.78-100.39,81.98,18.45-2.18,32.76-17.87,32.76-36.91v-45.07h67.63Z"/>
  <path class="cls-1" d="m152.21,85.23v-48.06c0-4.31-.73-8.44-2.08-12.29-1.86-5.32-4.9-10.09-8.81-13.99-5.74-5.75-13.37-9.63-21.87-10.63,27.56,1.82,52.39,13.64,70.9,31.85.23.22.46.44.69.67.23.23.45.46.67.69,13.89,14.11,24.05,31.9,28.91,51.76h-68.41Z"/>
  <path class="cls-1" d="m119.45.26c-1.89-.14-3.81-.22-5.73-.23.44-.02.88-.03,1.32-.03,1.49,0,2.97.09,4.41.26Z"/>
  <path class="cls-1" d="m119.45,223.56c-1.44.17-2.92.26-4.41.26-.44,0-.88-.01-1.32-.03,1.92,0,3.84-.09,5.73-.23Z"/>
  <path class="cls-1" d="m33.47,191.72c-.23-.22-.46-.44-.69-.67h0c.23.22.46.44.69.67Z"/>
  <path class="cls-1" d="m152.13,85.23v-43.61l-74.26,56.74-19.68,15.04,19.68,15.04,39.73,30.36,34.53,26.39v-43.61h.08v45.07c0,19.04-14.31,34.73-32.76,36.91-1.89.14-3.81.22-5.73.23-.6.03-1.21.03-1.81.03-30.52,0-58.16-12.21-78.35-32.02-.03-.02-.06-.05-.09-.08-.23-.23-.46-.45-.69-.68-.26-.25-.5-.5-.75-.76C12.21,170.1,0,142.43,0,111.91,0,50.1,50.1,0,111.91,0c.6,0,1.21,0,1.81.03,1.92,0,3.84.09,5.73.23,8.5,1,16.13,4.88,21.87,10.63,3.91,3.9,6.95,8.67,8.81,13.99,1.35,3.85,2.08,7.98,2.08,12.29v48.06h-.08Z"/>
</svg>